<?xml version="1.0" standalone="no"?>
<!DOCTYPE svg PUBLIC "-//W3C//DTD SVG 20010904//EN"
 "http://www.w3.org/TR/2001/REC-SVG-20010904/DTD/svg10.dtd">
<svg version="1.0" xmlns="http://www.w3.org/2000/svg"
 width="225.000000pt" height="225.000000pt" viewBox="0 0 225.000000 225.000000"
 preserveAspectRatio="xMidYMid meet">

<g transform="translate(0.000000,225.000000) scale(0.100000,-0.100000)"
fill="#000000" stroke="none">
<path d="M1000 1654 c-14 -2 -68 -12 -120 -20 -232 -39 -431 -129 -617 -276
-94 -75 -213 -195 -213 -215 0 -21 85 -116 175 -195 179 -157 376 -263 593
-320 108 -29 130 -31 292 -32 136 -1 194 3 260 18 231 50 426 149 626 317 91
76 194 188 194 212 0 41 -216 235 -357 320 -141 85 -341 158 -465 172 -45 5
-39 2 37 -19 238 -63 453 -194 645 -390 l75 -77 -100 -97 c-180 -173 -396
-293 -615 -341 l-45 -10 44 37 c97 80 163 201 175 317 l6 60 -13 -52 c-53
-205 -219 -348 -431 -369 -151 -15 -322 68 -409 198 -147 222 -78 515 154 651
97 57 247 73 358 38 84 -26 137 -59 202 -128 64 -66 103 -136 124 -221 l15
-57 -6 55 c-18 164 -116 302 -273 385 -61 33 -73 35 -176 39 -60 3 -121 3
-135 0z m-140 -48 c0 -2 -20 -16 -43 -30 -56 -32 -144 -127 -179 -192 -103
-190 -67 -451 84 -606 26 -26 42 -48 36 -48 -6 0 -50 16 -99 35 -157 63 -282
143 -416 268 -130 120 -129 100 -20 209 157 156 336 270 527 335 96 33 110 36
110 29z"/>
<path d="M1278 1643 c6 -2 18 -2 25 0 6 3 1 5 -13 5 -14 0 -19 -2 -12 -5z"/>
<path d="M1017 1306 c-160 -57 -156 -293 5 -361 159 -66 329 82 278 241 -25
77 -71 117 -152 130 l-33 5 38 -21 c20 -11 49 -38 63 -60 23 -34 26 -47 22
-97 -4 -49 -10 -61 -41 -89 -49 -45 -97 -53 -154 -25 -35 17 -49 31 -65 67
-33 76 -3 156 77 201 46 26 24 31 -38 9z"/>
</g>
</svg>
