<?xml version="1.0" standalone="no"?>
<!DOCTYPE svg PUBLIC "-//W3C//DTD SVG 20010904//EN"
 "http://www.w3.org/TR/2001/REC-SVG-20010904/DTD/svg10.dtd">
<svg version="1.0" xmlns="http://www.w3.org/2000/svg"
 width="512.000000pt" height="512.000000pt" viewBox="0 0 512.000000 512.000000"
 preserveAspectRatio="xMidYMid meet">

<g transform="translate(0.000000,512.000000) scale(0.100000,-0.100000)"
fill="#000000" stroke="none">
<path d="M3485 3589 c-11 -6 -102 -92 -201 -191 l-182 -180 -100 41 c-140 57
-245 81 -393 88 -250 12 -475 -50 -689 -188 -40 -26 -161 -138 -312 -288 -212
-210 -248 -250 -248 -276 0 -24 32 -62 213 -243 116 -117 243 -237 280 -265
l68 -50 -201 -202 c-177 -178 -200 -205 -200 -234 0 -43 38 -81 82 -81 28 0
56 24 249 216 l217 216 63 -25 c355 -142 744 -103 1064 106 68 45 147 116 323
291 128 127 235 241 239 254 3 13 2 32 -3 42 -13 27 -400 420 -461 467 l-51
40 169 169 c92 92 173 181 180 196 15 36 -2 81 -37 97 -31 14 -43 14 -69 0z
m-670 -434 c49 -14 107 -34 128 -43 l38 -17 -89 -89 -90 -88 -65 32 c-204 100
-443 17 -540 -187 -29 -63 -32 -76 -32 -169 0 -95 2 -104 36 -172 l35 -71
-101 -101 -102 -101 -79 59 c-78 59 -394 371 -394 389 0 17 375 380 435 420
190 128 356 175 590 169 115 -3 156 -9 230 -31z m398 -203 c77 -62 349 -341
345 -353 -2 -5 -83 -89 -180 -188 -236 -239 -342 -309 -564 -373 -69 -20 -102
-23 -249 -23 -172 0 -246 11 -344 52 l-34 15 468 468 c258 258 474 466 479
463 6 -3 42 -31 79 -61z m-585 -127 c29 -9 52 -19 52 -23 0 -4 -73 -81 -163
-170 l-163 -163 -13 28 c-7 15 -15 53 -18 83 -10 106 56 205 159 241 65 23 81
23 146 4z"/>
</g>
</svg>
